<?xml version="1.0" encoding="UTF-8" standalone="no"?><!DOCTYPE svg PUBLIC "-//W3C//DTD SVG 1.1//EN" "http://www.w3.org/Graphics/SVG/1.1/DTD/svg11.dtd"><svg width="100%" height="100%" viewBox="0 0 158 150" version="1.1" xmlns="http://www.w3.org/2000/svg" xmlns:xlink="http://www.w3.org/1999/xlink" xml:space="preserve" xmlns:serif="http://www.serif.com/" style="fill-rule:evenodd;clip-rule:evenodd;stroke-linejoin:round;stroke-miterlimit:1.41421;"><path d="M78.684,127.471c-20.856,0 -38.871,-12.16 -47.342,-29.778c1.088,0.253 2.217,0.375 3.373,0.375c2.379,0 4.59,-0.516 6.488,-1.633c2.517,-0.964 4.614,-2.82 6.006,-5.732c0.503,0.021 1.004,0.031 1.503,0.031c3.578,0 7.074,-0.547 10.476,-1.716c-2.247,-1.9 -7.2,-11.376 -7.2,-12.971c0,-1.594 4.766,-5.758 5.023,-7.777c0.162,-1.268 -0.819,-3.844 -1.34,-5.004c-0.061,-0.622 -0.387,-3.967 -0.449,-4.596c-3.223,-1.262 -5.741,-1.833 -8.082,-1.833c-1.373,0 -2.686,0.197 -4.045,0.566c-2.227,-4.071 -4.902,-7.025 -7.709,-7.791c-0.714,-0.433 -1.442,-0.737 -2.177,-0.894c9.078,-15.691 26.044,-26.247 45.475,-26.247c10.279,0 19.866,2.953 27.962,8.058c-1.064,0.403 -1.929,0.863 -2.485,1.295c-1.197,0.751 -1.892,1.466 -2.245,2.133l0.001,-0.049c-1.109,1.939 0.065,3.05 1.495,4.24c0.08,1.151 0.241,3.139 0.484,4.722c0.281,1.831 -0.304,3.113 -0.049,4.626c0.228,1.356 1.625,2.865 3.331,6.378c0.054,0.034 0.155,0.05 0.294,0.05c0.635,0 2.075,-0.323 3.556,-0.704c0.111,1.355 0.126,2.637 0.021,3.827c-2.634,0.502 -4.538,1.332 -5.132,1.839c-1.819,6.547 -4.157,9.016 -3.957,10.93c0.306,2.923 6.142,5.947 6.283,8.636c0.272,5.212 -5.012,7.694 -7.783,8.893c2.721,4.767 9.188,7.268 14.538,7.268c0.303,0 0.617,0.001 0.939,0.001c4.794,0 11.233,-0.287 7.887,-9.429c-1.273,-3.478 -3.389,-6.218 -3.393,-7.616c-0.01,-3.447 1.375,-3.893 3.326,-9.502c1.489,-4.281 1.351,-7.478 1.199,-8.766c0.946,0.542 1.675,0.588 1.675,0.588c-0.001,0 -0.001,0 -0.001,-0.001c0,0.001 0.001,0.001 0.001,0.001c-0.102,-0.055 -0.197,-0.122 -0.284,-0.199c0,-0.001 -0.001,-0.002 -0.002,-0.002c-0.001,-0.001 -0.003,-0.003 -0.004,-0.004c-0.002,-0.002 -0.004,-0.003 -0.006,-0.005c-0.001,-0.001 -0.001,-0.002 -0.003,-0.003c-0.002,-0.002 -0.004,-0.004 -0.007,-0.006c0,-0.001 -0.001,-0.001 -0.001,-0.002c-1.18,-1.097 -1.007,-4.301 -0.604,-8.044c3.497,7.032 5.464,14.96 5.464,23.347c0,28.995 -23.505,52.5 -52.5,52.5Zm44.753,-69.411c-1.722,-0.671 -3.447,-1.071 -5.108,-1.272c-0.402,-2.198 -0.592,-4.639 -0.679,-6.236c0.922,-0.308 1.982,-1.16 2.911,-2.429c0.167,2.377 0.428,4.802 1.017,6.578c0.505,1.522 1.174,2.598 1.859,3.359Z" style="fill:#7272d2;fill-rule:nonzero;"/><path d="M77.967,149.493c-40.023,0 -77.967,-9.184 -77.967,-9.184l157.368,0c0,0 -39.378,9.184 -79.401,9.184Z" style="fill:#7272d2;fill-rule:nonzero;"/><path d="M40.417,107.274c0,0 -1.785,0 -4.171,0c-2.386,0 -2.745,-2.212 -2.745,-2.212l0,-9.383l4.172,0l0,9.383l2.744,0l0,2.212Z" style="fill:#a3bbe5;fill-rule:nonzero;"/><path d="M37.673,95.679l0,9.383l2.744,0l0,2.212c0,0 -1.785,0 -4.171,0c-0.373,0 -0.681,-0.067 -0.961,-0.158c1.396,-0.537 1.598,-1.903 1.598,-1.903l0,-9.534l0.79,0Z" style="fill:#7797c6;fill-rule:nonzero;"/><path d="M47.611,79.016c0.734,13.662 -5.209,19.052 -12.896,19.052c-7.687,0 -14.208,-5.39 -14.941,-19.052c-0.733,-13.662 4.599,-30.421 12.286,-30.421c7.686,0 14.818,16.759 15.551,30.421Z" style="fill:#18496b;fill-rule:nonzero;"/><path d="M48.997,78.827c0.709,13.208 -5.036,18.419 -12.468,18.419c-7.431,0 -13.735,-5.211 -14.444,-18.419c-0.709,-13.208 4.446,-29.41 11.878,-29.41c7.431,0 14.325,16.202 15.034,29.41Z" style="fill:#285d87;fill-rule:nonzero;"/><path d="M36.685,73.776l1.527,-3.253l1.702,2.667l-3.229,0.586Zm12.312,5.051c-0.643,-11.99 -6.387,-26.406 -13.001,-28.97c-0.897,0.948 -1.74,2.031 -1.667,2.705c0.135,1.269 1.02,1.801 1.02,1.801c0,0 -1.842,3.831 -0.705,5.51l0.004,0.003c-3.157,2.68 -8.794,17.04 -7.029,19.743c1.657,2.535 4.694,3.371 11.42,0.109c-0.8,1.506 -1.491,0.909 -3.929,8.2l0.166,0.048c-0.118,0.357 -0.237,0.705 -0.353,1.084c0,0 -0.596,2.231 -0.635,4.914c-0.019,1.007 0.038,2.078 0.229,3.121c0.66,0.091 1.328,0.151 2.012,0.151c7.432,0 13.177,-5.211 12.468,-18.419Z" style="fill:#18496b;fill-rule:nonzero;"/><rect x="49.458" y="106.117" width="2.146" height="32.193" style="fill:#a3bbe5;fill-rule:nonzero;"/><rect x="49.458" y="106.117" width="0.784" height="32.193" style="fill:#7797c6;fill-rule:nonzero;"/><path d="M51.706,114.653l1.705,-8.036l-5.76,0l1.706,8.036l2.349,0Z" style="fill:#7797c6;fill-rule:nonzero;"/><path d="M38.472,140.202l24.118,0l0,-0.661l-9.688,-1.617l-4.742,0l-9.688,1.617l0,0.661Z" style="fill:#a3bbe5;fill-rule:nonzero;"/><path d="M47.595,138.108l5.872,0l-1.09,-6.852l-3.691,0l-1.091,6.852Z" style="fill:#a3bbe5;fill-rule:nonzero;"/><path d="M52.377,131.256l-3.691,0l-1.091,6.852l-9.123,1.433l16.079,0l-2.845,-1.231l-0.768,-6.447l1.439,-0.607Z" style="fill:#7797c6;fill-rule:nonzero;"/><path d="M67.213,104.691l-33.364,0c0,-1.674 1.358,-3.032 3.033,-3.032l27.298,0c1.675,0 3.033,1.358 3.033,3.032Z" style="fill:#285d87;fill-rule:nonzero;"/><path d="M63.95,101.659l-14.031,0c1.802,0 3.263,1.358 3.263,3.032l14.031,0c0,-1.674 -1.461,-3.032 -3.263,-3.032Z" style="fill:#18496b;fill-rule:nonzero;"/><path d="M33.902,104.161c-0.032,0.172 -0.053,0.349 -0.053,0.53l33.364,0c0,-0.181 -0.02,-0.358 -0.053,-0.53l-33.258,0Z" style="fill:#18496b;fill-rule:nonzero;"/><rect x="32.544" y="104.57" width="35.974" height="4.094" style="fill:#285d87;fill-rule:nonzero;"/><rect x="45.27" y="104.57" width="23.248" height="4.094" style="fill:#18496b;fill-rule:nonzero;"/><rect x="32.544" y="104.57" width="35.974" height="0.493" style="fill:#18496b;fill-rule:nonzero;"/><path d="M45.854,113.104c0.228,0 0.423,-0.023 0.568,-0.077c1.187,-0.432 0.944,-4.131 0.911,-4.551c-0.007,-0.094 -0.086,-0.165 -0.178,-0.165l-0.014,0.001c-0.098,0.007 -0.172,0.092 -0.164,0.192c0.112,1.483 0.027,3.931 -0.676,4.187c-0.849,0.301 -4.071,-0.684 -5.243,-1.093c-0.095,-0.032 -0.196,0.019 -0.229,0.11c-0.031,0.093 0.018,0.195 0.11,0.228c0.386,0.134 3.397,1.168 4.915,1.168Z" style="fill:#323749;fill-rule:nonzero;"/><path d="M40.042,110.366c0.781,0.206 1.937,1.038 1.776,1.645c-0.16,0.607 -1.576,0.76 -2.357,0.553c-0.781,-0.206 -1.284,-0.866 -1.124,-1.473c0.161,-0.607 0.924,-0.931 1.705,-0.725Z" style="fill:#323749;fill-rule:nonzero;"/><path d="M40.449,47.951c0,0 -3.841,3.206 -3.691,4.611c0.135,1.269 1.022,1.801 1.022,1.801c0,0 -1.844,3.831 -0.706,5.51c1.137,1.678 8.603,-0.034 8.603,-0.034l-0.48,-10.342l-4.748,-1.546Z" style="fill:#c73700;fill-rule:nonzero;"/><path d="M39.887,47.725l3.436,2.006l0.04,1.236c-1.849,-0.173 -3.02,-1.014 -4.134,-2.108l0.658,-1.134Z" style="fill:#323249;fill-rule:nonzero;"/><path d="M54.606,58.327c-3.814,-0.492 -2.137,5.08 1.167,11.721c2.801,5.629 4.088,9.916 6.599,8.915c3.733,-1.488 -4.759,-20.248 -7.766,-20.636Z" style="fill:#4aa9b8;fill-rule:nonzero;"/><path d="M69.554,95.199c0,0 2.56,1.76 1.28,6.479l-10.398,0c0,0 0.32,-6.558 9.118,-6.479Z" style="fill:#303047;fill-rule:nonzero;"/><path d="M73.627,138.614c0,0 2.055,0.851 2.079,1.261c0.024,0.41 -2.521,0.46 -4.146,0.3c-0.747,-0.074 -0.735,-2.486 -1.37,-3.822c-0.635,-1.335 -1.304,-1.334 0.27,-3.678l1.315,4.755l1.852,1.184Z" style="fill:#2d313d;fill-rule:nonzero;"/><path d="M71.807,132.504c0,0 0.499,1.824 0.849,3.12c0.403,1.494 0.597,2.323 0.971,2.99c0,0 -1.014,0.45 -1.775,0.153c-0.761,-0.296 -0.751,-2.079 -1.981,-4.084c-0.441,-0.719 0.657,-2.121 0.657,-2.121l1.279,-0.058Z" style="fill:#ed9558;fill-rule:nonzero;"/><path d="M70.46,132.675c0,0 -0.078,0.94 0.086,1.783c0.162,0.828 0.722,5.126 3.081,4.156c0,0 -0.762,1.602 -1.721,1.083c-0.96,-0.52 -1.187,-2.524 -1.618,-3.565c-0.432,-1.041 -1.446,-1.224 0.172,-3.457Z" style="fill:#2d313d;fill-rule:nonzero;"/><path d="M69.563,135.161c0,0 0.51,2.118 0.622,5.016l0.336,0c0,0 -0.126,-2.174 0.085,-3.345l-1.043,-1.671Z" style="fill:#2d313d;fill-rule:nonzero;"/><path d="M60.796,92.639c0,0 10.444,2.16 10.642,6.337c0.196,4.165 -0.396,6.548 -0.242,16.484c0.153,9.937 0.575,17.331 0.575,17.331l-1.367,-0.104c0,0 -5.549,-16.504 -5.428,-21.996c0.122,-5.492 1.204,-9.893 1.204,-9.893l-7.518,0l2.134,-8.159Z" style="fill:#ed9558;fill-rule:nonzero;"/><path d="M65.041,98.762l-4.759,-3.747l2.794,-1.789c2.241,0.653 5.558,1.85 7.265,3.578c-0.008,-0.001 -0.861,-0.084 -1.757,0.743c0,0 0.101,0.708 0,2.43c-0.094,1.594 -2.269,10.83 -2.428,18.138c-0.713,-2.984 -1.217,-5.729 -1.179,-7.424c0.121,-5.492 1.203,-9.893 1.203,-9.893l-1.553,0c0.249,-1.223 0.414,-2.036 0.414,-2.036Z" style="fill:#d87239;fill-rule:nonzero;"/><path d="M57.717,93.359c0,0 10.398,1.44 9.997,5.617c-0.399,4.165 -1.283,6.548 -2.552,16.484c-1.268,9.936 -1.904,17.331 -1.904,17.331l-1.352,-0.104c0,0 -3.188,-16.504 -2.281,-21.996c0.908,-5.492 2.571,-9.893 2.571,-9.893l-7.518,0l3.039,-7.439Z" style="fill:#ffb476;fill-rule:nonzero;"/><path d="M67.381,97.509c-0.014,-0.001 -2.569,-0.234 -5.185,3.289l-2.521,0l1.07,-6.822c2.433,0.615 5.601,1.732 6.636,3.533Z" style="fill:#ed9558;fill-rule:nonzero;"/><path d="M64.684,138.627c0,0 2.008,0.851 2.009,1.261c0,0.409 -2.547,0.459 -4.163,0.299c-0.742,-0.073 -0.597,-2.485 -1.158,-3.821c-0.56,-1.336 -1.229,-1.334 0.475,-3.679l1.051,4.755l1.786,1.185Z" style="fill:#2d313d;fill-rule:nonzero;"/><path d="M63.204,132.517c0,0 0.397,1.824 0.675,3.12c0.32,1.493 0.468,2.322 0.805,2.99c0,0 -1.039,0.449 -1.784,0.153c-0.744,-0.296 -0.635,-2.08 -1.754,-4.085c-0.401,-0.719 0.776,-2.12 0.776,-2.12l1.282,-0.058Z" style="fill:#ffb476;fill-rule:nonzero;"/><path d="M61.847,132.687c0,0 -0.13,0.94 -0.013,1.784c0.116,0.827 0.437,5.126 2.85,4.156c0,0 -0.851,1.602 -1.782,1.082c-0.93,-0.519 -1.046,-2.524 -1.419,-3.564c-0.374,-1.041 -1.378,-1.225 0.364,-3.458Z" style="fill:#2d313d;fill-rule:nonzero;"/><path d="M60.812,135.173c0,0 0.392,2.119 0.343,5.017l0.335,-0.001c0,0 -0.005,-2.173 0.272,-3.344l-0.95,-1.672Z" style="fill:#2d313d;fill-rule:nonzero;"/><path d="M37.353,89.06c0,0 -2.353,8.778 1.968,12.458l21.115,0c1.309,-3.698 4.038,-6.089 9.118,-6.319l-10.366,-6.18l-21.835,0.041Z" style="fill:#3d3d5b;fill-rule:nonzero;"/><path d="M59.188,89.019l-3.968,3.465c0,0 -13.466,-1.316 -17.867,-3.424l21.835,-0.041Z" style="fill:#323249;fill-rule:nonzero;"/><path d="M41.463,89.052l-4.11,0.008c0,0 -2.353,8.938 1.968,12.618l21.115,0c0.222,-0.627 0.488,-1.373 0.796,-1.92c-2.077,-0.012 -11.791,-0.184 -16.633,-2.32c-4.051,-1.786 -3.62,-6.231 -3.136,-8.386Z" style="fill:#323249;fill-rule:nonzero;"/><path d="M54.886,44.253c0,0 3.019,-5.094 2.136,-7.471c-1.88,-5.054 -7.776,-6.259 -8.13,-5.5c-3.24,-1.721 -7.385,0.639 -8.979,2.45c-5.55,6.308 -1.4,16.432 5.004,16.337c9.777,2.893 9.969,-5.816 9.969,-5.816Z" style="fill:#c73700;fill-rule:nonzero;"/><path d="M44.184,75.779c0,-1.403 -8.524,-9.059 -6.538,-16.277l0,-0.001c1.315,-0.613 2.496,-1.104 3.634,-1.518c4.458,-1.619 8.003,-1.637 13.942,0.687c0.062,0.629 0.388,3.974 0.449,4.596c0.521,1.16 1.502,3.736 1.34,5.004c-0.257,2.019 -5.023,6.183 -5.023,7.777c0,1.595 4.953,11.071 7.2,12.971c-6.922,2.379 -14.232,2.183 -21.835,0.042c2.882,-9.434 6.831,-11.813 6.831,-13.281Z" style="fill:#f4e4ec;fill-rule:nonzero;"/><path d="M39.552,68.27c9.004,2.424 16.897,0.181 17.454,0.016c-0.278,2.024 -5.018,6.17 -5.018,7.761c0,1.595 4.953,11.071 7.2,12.971c-6.922,2.379 -14.232,2.183 -21.835,0.042c2.882,-9.434 6.831,-11.813 6.831,-13.281c0,-0.793 -2.719,-3.582 -4.728,-7.16c0.06,-0.22 0.096,-0.349 0.096,-0.349Z" style="fill:#dbb4d1;fill-rule:nonzero;"/><path d="M48.139,59.258c0.175,0.353 2.352,8.565 2.576,10.237c0.232,1.743 -1.413,5.25 -1.349,6.774c0.064,1.525 2.276,10.727 3.987,14.121c-0.116,0.016 -0.234,0.025 -0.35,0.04c-2.213,-4.704 -3.97,-12.819 -3.99,-14.155c-0.021,-1.336 1.564,-5.148 1.351,-6.734c-0.215,-1.615 -2.533,-10.157 -2.576,-10.243l0.351,-0.04Z" style="fill:#cca2c3;fill-rule:nonzero;"/><path d="M42.589,46.72c0,0 1.798,6.469 0.392,10.987l4.532,0.727l2.649,-0.43c0,0 -1.006,-2.815 -0.828,-6.593c0.13,-2.77 -6.745,-4.691 -6.745,-4.691Z" style="fill:#ed9558;fill-rule:nonzero;"/><path d="M48.571,58.936l0.917,1.688l1.715,-3.261c-0.271,-0.067 -0.537,-0.127 -0.799,-0.181l-2.755,-0.402l-4.185,0.512c-0.523,0.13 -1.052,0.284 -1.592,0.466l4.504,3.256l0.758,-1.972l1.016,0.924l0.421,-1.03Z" style="fill:#cca2c3;fill-rule:nonzero;"/><path d="M43.672,47.067c1.93,0.673 5.737,2.173 5.639,4.246c-0.049,1.061 -0.024,1.779 0.081,2.694c0,0 -2.565,3.083 -6.027,3.762l-0.384,-0.062c1.081,-3.474 0.269,-8.091 -0.164,-10.044l0.855,-0.596Z" style="fill:#d1652f;fill-rule:nonzero;"/><path d="M47.649,56.78l-1.384,3.412l-4.328,-2.599l1.147,-3.009l4.565,2.196Z" style="fill:#f4e4ec;fill-rule:nonzero;"/><path d="M47.648,56.762l1.787,3.1l1.62,-2.683l-1.34,-2.375l-2.067,1.958Z" style="fill:#f4e4ec;fill-rule:nonzero;"/><path d="M50.599,53.906c0.675,-0.082 1.682,-1.317 2.335,-1.961c1.388,-1.365 2.668,-3.023 1.773,-6.617c0,0 2.711,-9.286 -4.907,-10.032c-7.618,-0.747 -8.798,6.811 -7.081,12.474c1.718,5.663 7.24,6.215 7.88,6.136Z" style="fill:#ffb476;fill-rule:nonzero;"/><path d="M47.875,35.314c-5.339,0.986 -5.996,17.263 2.805,18.568l-0.081,0.024c-0.64,0.079 -6.162,-0.473 -7.88,-6.136c-1.559,-5.141 -0.712,-11.824 5.156,-12.456Z" style="fill:#ed9558;fill-rule:nonzero;"/><path d="M52.075,42.014c0,0 -1.496,1.346 -1.255,3.188c0.241,1.842 1.791,2.324 1.791,2.324c0,0 -0.415,1.306 -1.618,1.276c-1.203,-0.03 0.978,-1.203 0.978,-1.203c0,0 -1.6,-1.044 -1.722,-2.379c-0.175,-1.897 1.826,-3.206 1.826,-3.206Z" style="fill:#ed9558;fill-rule:nonzero;"/><path d="M48.579,41.465c0.021,0.178 -0.659,0.128 -1.938,0.363c-1.168,0.214 -2.036,0.591 -2.069,0.416c-0.032,-0.176 0.608,-0.747 1.975,-1.014c1.321,-0.259 1.993,-0.107 2.032,0.235Z" style="fill:#c73700;fill-rule:nonzero;"/><path d="M55.395,42.96c-0.026,0.121 -0.603,-0.322 -1.453,-0.616c-0.84,-0.29 -1.67,-0.533 -1.649,-0.68c0.018,-0.126 0.241,-0.23 0.638,-0.198c2.399,0.461 2.503,1.316 2.464,1.494Z" style="fill:#c73700;fill-rule:nonzero;"/><path d="M48.015,49.821l-0.265,0.007l-0.058,-0.149l0.149,-0.058l0.174,0.2Z" style="fill:#93271c;fill-rule:nonzero;"/><path d="M52.711,49.889l0.26,-0.045l0.028,-0.157l-0.157,-0.027l-0.131,0.229Z" style="fill:#93271c;fill-rule:nonzero;"/><path d="M47.879,49.759l4.947,0.075c0,0 -0.837,1.469 -2.419,1.477c-1.582,0.008 -2.528,-1.552 -2.528,-1.552Z" style="fill:#9a6335;fill-rule:nonzero;"/><path d="M47.879,49.759l4.947,0.075c0,0 -0.837,1.469 -2.419,1.477c-1.582,0.008 -2.528,-1.552 -2.528,-1.552Z" style="fill:#93271c;fill-rule:nonzero;"/><path d="M48.24,49.9l4.007,0.055c0,0 -0.799,1.272 -2.123,1.148c-1.323,-0.124 -1.884,-1.203 -1.884,-1.203Z" style="fill:#f7eee2;fill-rule:nonzero;"/><path d="M48.24,49.9l4.007,0.055l-0.232,0.298c0,0 -0.426,-0.251 -1.742,-0.244c-1.317,0.006 -1.847,0.163 -1.847,0.163l-0.186,-0.272Z" style="fill:#d5b698;fill-rule:nonzero;"/><path d="M44.917,34.944l0.534,0.406c1.815,-1.237 4.821,-1.977 8.588,0.291c0,0 -0.371,1.495 -2.65,1.917c-4.603,0.851 -6.423,1.015 -7.907,3.901c-0.116,2.121 0.141,3.912 -0.374,4c-0.342,0.059 -1.139,-0.593 -1.139,-0.593c0,0 -2.521,-9.151 2.948,-9.922Z" style="fill:#c73700;fill-rule:nonzero;"/><path d="M40.524,46.579c-0.029,0.894 0.672,1.642 1.565,1.671c0.894,0.029 1.642,-0.672 1.671,-1.566c0.029,-0.893 -0.672,-1.641 -1.566,-1.67c-0.893,-0.03 -1.642,0.671 -1.67,1.565Z" style="fill:#ed9558;fill-rule:nonzero;"/><path d="M42.176,45.583c0.234,0.007 0.436,0.105 0.606,0.24c-0.087,-0.032 -0.177,-0.062 -0.275,-0.065c-0.496,-0.016 -0.912,0.373 -0.928,0.87c-0.016,0.496 0.373,0.912 0.87,0.928l0.217,-0.037c-0.166,0.099 -0.351,0.169 -0.558,0.162c-0.58,-0.019 -1.034,-0.504 -1.015,-1.083c0.019,-0.58 0.504,-1.034 1.083,-1.015Z" style="fill:#d1652f;fill-rule:nonzero;"/><path d="M48.416,44.875c0,0 -0.131,0.811 -1.571,0.688c-1.24,-0.105 -1.621,-0.815 -1.257,-0.702c0.363,0.114 2.828,0.014 2.828,0.014Z" style="fill:#562824;fill-rule:nonzero;"/><path d="M48.562,44.434l-3.023,-0.373l-0.693,-0.078c0.513,-0.923 3.524,-1.428 3.716,0.451Z" style="fill:#562824;fill-rule:nonzero;"/><path d="M48.428,44.447c-0.073,-0.47 -0.33,-1.021 -1.43,-0.987c-1.535,0.048 -1.714,1.028 -1.448,1.466c0.471,0.774 3.101,0.972 2.878,-0.479Z" style="fill:#f7eee2;fill-rule:nonzero;"/><path d="M46.471,44.48c0.005,0.592 0.472,1.068 1.044,1.063c0.571,-0.005 1.03,-0.489 1.025,-1.081c-0.006,-0.592 -0.473,-1.068 -1.044,-1.063c-0.572,0.005 -1.031,0.49 -1.025,1.081Z" style="fill:#562824;fill-rule:nonzero;"/><path d="M41.44,39.412c0.554,0.035 1.101,-0.056 1.585,-0.262c0.204,-0.087 0.4,-0.188 0.575,-0.319c1.972,-1.468 4.793,-1.842 7.168,-2.153c1.87,-0.244 2.385,-1.099 2.521,-1.455l0.135,0.066c0,0 0.228,0.416 0.468,0.7c-0.241,0.46 -0.876,1.268 -2.503,1.569c-4.601,0.851 -6.422,1.015 -7.906,3.899c-0.115,2.121 0.14,3.914 -0.375,4.002c-0.342,0.059 -1.139,-0.593 -1.139,-0.593c-0.551,0.074 -1.548,-2.711 -0.529,-5.454Z" style="fill:#c73700;fill-rule:nonzero;"/><path d="M51.903,45.001c0,0 -0.084,0.816 1.359,0.749c0.876,-0.041 1.204,-0.69 0.833,-0.606c-0.37,0.084 -2.192,-0.143 -2.192,-0.143Z" style="fill:#562824;fill-rule:nonzero;"/><path d="M51.9,44.548l2.426,-0.173l0.54,-0.058c-0.451,-0.923 -2.609,-1.473 -2.966,0.231Z" style="fill:#562824;fill-rule:nonzero;"/><path d="M51.919,44.587c0.117,-0.444 0.513,-0.921 1.608,-0.812c0.874,0.037 0.998,1.01 0.731,1.432c-0.515,0.814 -2.68,0.681 -2.339,-0.62Z" style="fill:#f7eee2;fill-rule:nonzero;"/><path d="M54.414,44.766c-0.043,0.559 -0.531,0.977 -1.09,0.934c-0.559,-0.043 -0.977,-0.531 -0.934,-1.09c0.044,-0.559 0.532,-0.977 1.09,-0.934c0.559,0.043 0.977,0.531 0.934,1.09Z" style="fill:#562824;fill-rule:nonzero;"/><path d="M43.994,75.779c0,-1.403 -8.466,-8.96 -6.348,-16.278c1.142,-0.533 2.102,-1.034 3.102,-1.411c0.041,0.059 5.428,7.099 6.205,10.58c0.63,2.826 0.3,4.981 -0.003,7.107c-0.304,2.127 -0.64,10.936 0.069,13.771c0,0 -4.005,0.103 -9.48,-1.62c2.84,-8.486 6.455,-10.742 6.455,-12.149Z" style="fill:#0095c4;fill-rule:nonzero;"/><path d="M57.06,68.27c-0.257,2.019 -5.072,6.183 -5.072,7.777c0,1.437 4.222,9.147 6.662,12.071c-0.758,0.376 -2.241,0.722 -2.241,0.722c0,0 -5.695,-10.859 -5.391,-12.681c0.304,-1.823 2.886,-5.126 3.569,-8.087c0.675,-2.926 -2.274,-10.274 -2.323,-10.477c0,0 2.108,0.375 2.958,1.002c0.327,0.626 0.485,4.047 0.546,4.669c0.522,1.16 1.453,3.736 1.292,5.004Z" style="fill:#0095c4;fill-rule:nonzero;"/><path d="M47.019,89.548c0,0 -4.005,0.103 -9.48,-1.62c2.84,-8.486 6.455,-10.742 6.455,-12.149c0,-0.841 -3.031,-3.897 -5.012,-7.781c0.32,0.149 0.57,0.272 0.57,0.272c2.598,0.699 5.153,0.981 7.498,1.036c0.447,2.508 0.179,4.514 -0.1,6.471c-0.304,2.127 -0.64,10.936 0.069,13.771Z" style="fill:#007cb5;fill-rule:nonzero;"/><path d="M57.06,68.27c-0.257,2.019 -5.072,6.183 -5.072,7.777c0,1.437 4.222,9.147 6.662,12.071c-0.758,0.376 -2.241,0.722 -2.241,0.722c0,0 -5.695,-10.859 -5.391,-12.681c0.28,-1.681 2.481,-4.619 3.36,-7.39c1.183,-0.202 2.107,-0.414 2.679,-0.56l0.003,0.061Z" style="fill:#007cb5;fill-rule:nonzero;"/><path d="M53.422,35.542c0.042,-2.063 -4.748,-5.237 -8.986,-4.126c-3.91,1.025 -7,6.745 -5.29,8.454c0.682,0.683 2.658,-1.519 8.657,-2.734c2.749,-0.557 5.593,-0.354 5.619,-1.594Z" style="fill:#d64900;fill-rule:nonzero;"/><path d="M56.283,38.268c1.607,-1.096 -1.407,-4.04 -2.015,-3.736c-0.607,0.304 0.901,4.495 2.015,3.736Z" style="fill:#d64900;fill-rule:nonzero;"/><path d="M37.646,59.502c3.587,-1.385 2.843,4.833 -0.397,11.819c-2.645,5.703 -4.282,9.563 -6.815,8.621c-3.31,-1.23 4.132,-19.251 7.212,-20.44Z" style="fill:#0095c4;fill-rule:nonzero;"/><path d="M46.87,76.481c0.026,-0.277 0.052,-0.512 0.079,-0.697c0,-0.002 0,-0.004 0.001,-0.007c0.004,-0.028 0.008,-0.057 0.012,-0.086c-0.004,0.029 -0.008,0.058 -0.012,0.086c-0.026,0.183 -0.053,0.43 -0.079,0.703c0,0.001 -0.001,0.001 -0.001,0.001Z" style="fill:#838fb9;fill-rule:nonzero;"/><path d="M43.964,76.014l0,-0.001l0,0.001Zm0.001,-0.004c0,-0.001 0,-0.002 0,-0.003c0,0.001 0,0.002 0,0.003Zm0.001,-0.005c0.015,-0.062 0.024,-0.123 0.027,-0.182c-0.003,0.059 -0.012,0.12 -0.027,0.182Zm0.027,-0.182c0,-0.002 0,-0.003 0,-0.004c0,0.001 0,0.002 0,0.004Zm0,-0.005c0,-0.002 0,-0.003 0.001,-0.005c-0.001,0.002 -0.001,0.003 -0.001,0.005Zm0.001,-0.005c0,-0.003 0,-0.007 0,-0.01c0,0.004 0,0.007 0,0.01Zm0,-0.01c0,-0.001 0,-0.003 0,-0.004c0,0.001 0,0.003 0,0.004Zm0,-0.006c0,-0.001 0,-0.002 0,-0.003c0,0.001 0,0.002 0,0.003Zm0,-0.004c0,-0.001 0,-0.002 0,-0.003c0,0.001 0,0.002 0,0.003Zm0,-0.005c0,-0.001 0,-0.002 0,-0.003c0,0.001 0,0.002 0,0.003Zm0,-0.005c0,-0.001 0,-0.003 0,-0.004c0,0.001 0,0.003 0,0.004Zm0,-0.008c-0.002,-0.175 -0.155,-0.463 -0.377,-0.812l0.007,-0.003c0.217,0.338 0.351,0.602 0.368,0.78l0.001,0.006l0,0.004c0,0.002 0,0.004 0.001,0.006l0,0.019Z" style="fill:#0e3a5f;fill-rule:nonzero;"/><path d="M46.87,76.482c0.026,-0.278 0.052,-0.513 0.079,-0.698c-0.027,0.185 -0.053,0.42 -0.079,0.697l0,0.001Zm0.08,-0.705c0.004,-0.034 0.009,-0.068 0.014,-0.102c-0.001,0.005 -0.001,0.011 -0.002,0.016c-0.004,0.029 -0.008,0.058 -0.012,0.086Zm-2.956,-0.003l0,-0.001l0,0.001Zm0,-0.004c0,-0.001 0,-0.001 0,-0.002c0,0 0,0.001 0,0.002Zm0,-0.005c0,-0.001 0,-0.001 0,-0.002c0,0.001 0,0.001 0,0.002Zm0,-0.005c0,0 0,-0.001 0,-0.002c0,0.001 0,0.002 0,0.002Zm0,-0.004c-0.001,-0.002 -0.001,-0.004 -0.001,-0.006c0,0.002 0,0.004 0.001,0.006Zm-0.001,-0.007c0,-0.001 0,-0.002 0,-0.003c0,0.001 0,0.002 0,0.003Zm0,-0.004c0,-0.002 -0.001,-0.003 -0.001,-0.004c0,0.001 0.001,0.002 0.001,0.004Zm-0.001,-0.005c-0.017,-0.178 -0.151,-0.442 -0.368,-0.78l0.001,-0.001c0.217,0.339 0.35,0.603 0.367,0.781Z" style="fill:#0076ad;fill-rule:nonzero;"/><path d="M41.123,80.264c1.463,-2.287 2.635,-3.434 2.84,-4.246c0,-0.001 0,-0.003 0.001,-0.004l0,-0.001c0,-0.001 0,-0.002 0.001,-0.003c0,-0.001 0,-0.002 0,-0.003c0,0 0.001,-0.001 0.001,-0.002c0.015,-0.062 0.024,-0.123 0.027,-0.182c0,-0.002 0,-0.003 0,-0.004l0,-0.001c0,-0.002 0,-0.003 0.001,-0.005l0,-0.014c0,-0.001 0,-0.001 0,-0.002c0,-0.001 0,-0.002 0,-0.003l0,-0.001c0,-0.001 0,-0.002 0,-0.003c0,-0.001 0,-0.001 0,-0.002c0,-0.001 0,-0.002 0,-0.003c0,-0.001 0,-0.001 0,-0.002l0,-0.008l0,-0.001l0,-0.001c0,-0.001 0,-0.002 0,-0.003c0,-0.001 0,-0.002 0,-0.002c0,-0.001 0,-0.002 0,-0.003c0,-0.001 0,-0.001 0,-0.002c0,-0.001 0,-0.002 0,-0.003c0,0 0,-0.001 0,-0.002c0,-0.001 0,-0.001 0,-0.002c-0.001,-0.002 -0.001,-0.004 -0.001,-0.006l0,-0.001c0,-0.001 0,-0.002 0,-0.003l0,-0.001c0,-0.002 -0.001,-0.003 -0.001,-0.004l0,-0.001c-0.017,-0.178 -0.15,-0.442 -0.367,-0.781l3.594,-1.555c-0.061,0.778 -0.151,1.533 -0.255,2.271c-0.005,0.034 -0.01,0.068 -0.014,0.102c-0.001,0.003 -0.001,0.005 -0.001,0.007c-0.027,0.185 -0.053,0.42 -0.079,0.698c-0.815,0.647 -2.889,2.205 -5.747,3.782Z" style="fill:#0062a0;fill-rule:nonzero;"/><path d="M74.994,77.516l-12.173,2.491l5.407,-18.638l12.173,-2.491l-5.407,18.638Z" style="fill:#2d2d42;fill-rule:nonzero;"/><path d="M48.621,77.44l14.163,1.862l5.267,-18.301l-11.691,-1.858l-1.954,-0.196l-5.785,18.493Z" style="fill:#dbb4d1;fill-rule:nonzero;"/><path d="M48.621,77.44l14.163,1.862l5.224,-18.153l-14.163,-1.862l-5.224,18.153Z" style="fill:#f7e7e7;fill-rule:nonzero;"/><path d="M62.981,79.987l-14.889,-1.823l5.407,-18.638l14.889,1.824l-5.407,18.637Z" style="fill:#323249;fill-rule:nonzero;"/><path d="M48.092,78.164l5.407,-18.638l14.889,1.824l-20.296,16.814Z" style="fill:#2d2d42;fill-rule:nonzero;"/><path d="M46.509,72.573c0.528,0.459 0.53,0.985 0.22,1.549l-2.114,1.055l-0.492,-2.034l2.386,-0.57Z" style="fill:#ed9558;fill-rule:nonzero;"/><path d="M44.931,72.679l0.286,2.894c-3.24,2.177 -13.178,6.739 -15.22,3.998c-2.215,-4.757 6.614,-5.111 14.934,-6.892Z" style="fill:#0095c4;fill-rule:nonzero;"/><path d="M46.509,72.573c0,0 2.706,-0.95 3.591,-0.962c0.334,-0.005 1.052,0.178 1.571,0.324c0.856,0.241 1.695,0.573 1.617,0.861c-0.081,0.304 -0.972,-0.009 -1.796,-0.208c-0.638,-0.153 -1.348,-0.33 -1.405,-0.205c-0.059,0.129 0.738,0.246 1.471,0.417c0.885,0.207 1.911,0.504 1.877,0.804c-0.045,0.406 -1.143,-0.003 -2.07,-0.17c-0.716,-0.129 -1.371,-0.267 -1.397,-0.165c-0.026,0.103 0.481,0.165 1.244,0.324c0.799,0.166 1.727,0.294 1.696,0.546c-0.043,0.36 -0.961,0.156 -1.721,0.049c-0.78,-0.111 -1.343,-0.263 -1.355,-0.147c-0.006,0.05 0.288,0.127 0.86,0.245c0.552,0.113 1.191,0.117 1.138,0.345c-0.061,0.262 -1.88,0.005 -2.501,-0.075c-0.621,-0.079 -2.6,-0.434 -2.6,-0.434l-0.22,-1.549Z" style="fill:#ffb476;fill-rule:nonzero;"/><path d="M46.509,72.573c0.492,-0.169 2.806,-0.951 3.591,-0.962c0,0 -0.541,0.175 -0.268,0.755c0,0 -0.529,0.29 -0.205,0.835c0,0 -0.443,0.375 -0.17,0.75c0,0 -0.29,0.375 -0.128,0.605c-0.621,-0.079 -2.6,-0.434 -2.6,-0.434c0,0 -0.657,-0.51 -0.22,-1.549Z" style="fill:#ed9558;fill-rule:nonzero;"/><path d="M77.654,70.817c-0.178,-0.591 -3.13,0.047 -3.194,0.286c-0.164,0.619 2.458,-0.078 2.424,0.125c-0.016,0.096 -0.79,0.107 -1.516,0.226c-0.726,0.118 -1.188,0.127 -1.223,0.335c-0.043,0.256 0.34,0.329 1.177,0.313c0.604,-0.012 1.3,-0.001 1.281,0.136c-0.01,0.073 -0.59,0.013 -1.16,-0.002c-0.614,-0.016 -1.191,-0.105 -1.241,0.037c-0.101,0.289 0.606,0.427 1.177,0.541c0.462,0.093 0.952,0.116 0.952,0.197c0,0.065 -0.167,0.046 -0.492,0.002c-0.458,-0.062 -1.11,-0.285 -1.124,-0.029c-0.007,0.123 0.487,0.363 0.983,0.514c0.337,0.102 0.898,0.257 1.081,0.083c0.089,-0.086 0.098,-0.156 0.229,-0.316c0.105,-0.129 0.22,-0.124 0.325,-0.377c0.056,-0.133 0.009,-0.334 0.071,-0.475c0.12,-0.273 0.326,-0.214 0.332,-0.632c0.002,-0.15 -0.108,-0.285 -0.107,-0.496c0,-0.217 0.109,-0.186 0.025,-0.468Z" style="fill:#ed9558;fill-rule:nonzero;"/><rect x="20.817" y="82.634" width="29.087" height="6.294" style="fill:#c47c42;fill-rule:nonzero;"/><rect x="20.817" y="82.452" width="2.146" height="57.82" style="fill:#c47c42;fill-rule:nonzero;"/><rect x="47.389" y="82.452" width="1.277" height="57.82" style="fill:#c47c42;fill-rule:nonzero;"/><rect x="48.666" y="82.452" width="1.278" height="57.82" style="fill:#a85425;fill-rule:nonzero;"/><path d="M91.325,140.272l-2.147,0l0,-57.334l2.147,-0.486l0,57.82Z" style="fill:#9e4e21;fill-rule:nonzero;"/><rect x="114.961" y="82.452" width="2.147" height="57.82" style="fill:#a85425;fill-rule:nonzero;"/><rect x="48.666" y="82.634" width="68.442" height="6.254" style="fill:#a85425;fill-rule:nonzero;"/><rect x="48.666" y="82.469" width="68.442" height="3.785" style="fill:#99451f;fill-rule:nonzero;"/><rect x="20.817" y="82.634" width="27.849" height="3.62" style="fill:#af5f2c;fill-rule:nonzero;"/><rect x="16.985" y="80.478" width="32.478" height="4.102" style="fill:#d38b51;fill-rule:nonzero;"/><rect x="48.627" y="80.478" width="72.791" height="4.102" style="fill:#b76334;fill-rule:nonzero;"/><rect x="16.985" y="80.478" width="104.433" height="0.848" style="fill:#f49f44;fill-rule:nonzero;"/><path d="M91.375,65.116l-1.579,-2.33l-0.846,1.186l1.353,3.158l1.072,-2.014Z" style="fill:#ffb476;fill-rule:nonzero;"/><path d="M95.964,90.222c0,0 -11.058,2.018 -10.529,6.474c0.527,4.443 1.365,6.505 2.96,17.105c1.595,10.601 2.617,18.49 2.617,18.49c0,0 1.285,0.591 1.44,-0.111c-0.092,-1.897 3.416,-14.858 2.087,-22.069c-1.081,-5.863 -3.172,-11.953 -3.172,-11.953l8.021,0l-3.424,-7.936Z" style="fill:#ed9558;fill-rule:nonzero;"/><path d="M91.367,98.158l8.021,0l-3.424,-7.936c0,0 -11.058,2.018 -10.529,6.474c0.527,4.443 1.245,6.505 2.84,17.105c1.077,7.158 1.891,13.068 2.307,16.16l2.689,0.216c0.793,-4.471 2.341,-14.246 1.268,-20.066c-1.081,-5.863 -3.172,-11.953 -3.172,-11.953Z" style="fill:#323249;fill-rule:nonzero;"/><path d="M85.643,98.254c0.535,3.624 1.352,6.239 2.752,15.547c0.434,2.884 0.824,5.557 1.164,7.935c1.473,-6.794 0.352,-15.109 0.352,-15.109c1.28,-0.693 2.495,-1.109 3.605,-1.07c0.786,2.774 -1.408,-5.606 -1.914,-7.399l4.029,0l0.364,-0.667l-10.352,0.763Z" style="fill:#2c2c3f;fill-rule:nonzero;"/><path d="M89.633,138.517c0,0 -2.122,0.908 -2.113,1.345c0.009,0.437 2.728,0.49 4.448,0.32c0.791,-0.079 0.577,-2.652 1.143,-4.077c0.565,-1.425 1.279,-1.424 -0.596,-3.925l-1.006,5.073l-1.876,1.264Z" style="fill:#2d313d;fill-rule:nonzero;"/><path d="M91.063,131.999c0,0 -0.379,1.945 -0.644,3.328c-0.305,1.593 -0.444,2.477 -0.786,3.19c0,0 1.119,0.48 1.906,0.163c0.787,-0.316 0.627,-2.219 1.772,-4.358c0.411,-0.767 -0.879,-2.262 -0.879,-2.262l-1.369,-0.061Z" style="fill:#ed9558;fill-rule:nonzero;"/><path d="M92.515,132.18c0,0 -0.618,0.765 -0.723,1.665c-0.103,0.883 -0.956,5.455 -2.159,4.672c0,0 0.947,1.709 1.927,1.155c0.98,-0.554 1.054,-2.693 1.427,-3.803c0.374,-1.11 1.44,-1.307 -0.472,-3.689Z" style="fill:#2d313d;fill-rule:nonzero;"/><path d="M93.679,134.832c0,0 -0.367,2.261 -0.243,5.353l-0.358,-0.001c0,0 -0.048,-2.319 -0.372,-3.569l0.973,-1.783Z" style="fill:#2d313d;fill-rule:nonzero;"/><path d="M80.575,138.517c0,0 -2.121,0.908 -2.112,1.345c0.009,0.437 2.728,0.49 4.448,0.32c0.79,-0.079 0.576,-2.652 1.142,-4.077c0.566,-1.425 1.279,-1.424 -0.596,-3.925l-1.005,5.073l-1.877,1.264Z" style="fill:#2d313d;fill-rule:nonzero;"/><path d="M82.005,131.999c0,0 -0.379,1.945 -0.644,3.328c-0.305,1.593 -0.443,2.477 -0.786,3.19c0,0 1.12,0.48 1.907,0.163c0.787,-0.316 0.626,-2.219 1.772,-4.358c0.41,-0.767 -0.879,-2.262 -0.879,-2.262l-1.37,-0.061Z" style="fill:#ffb476;fill-rule:nonzero;"/><path d="M83.457,132.18c0,0 -0.618,0.765 -0.723,1.665c-0.103,0.883 -0.955,5.455 -2.159,4.672c0,0 0.947,1.709 1.927,1.155c0.981,-0.554 1.055,-2.693 1.428,-3.803c0.373,-1.11 1.44,-1.307 -0.473,-3.689Z" style="fill:#2d313d;fill-rule:nonzero;"/><path d="M84.622,134.832c0,0 -0.367,2.261 -0.244,5.353l-0.358,-0.001c0,0 -0.047,-2.319 -0.371,-3.569l0.973,-1.783Z" style="fill:#2d313d;fill-rule:nonzero;"/><path d="M81.463,96.696c-0.108,4.443 0.417,6.505 0.495,17.105c0.078,10.601 -0.029,18.49 -0.029,18.49c0,0 0.57,0.422 1.456,-0.111c-0.088,-1.312 5.759,-14.955 5.445,-22.069c-0.259,-5.859 -1.714,-11.953 -1.714,-11.953l-5.653,-1.462Z" style="fill:#ffb476;fill-rule:nonzero;"/><path d="M124.512,87.525c-1.019,-4.725 -4.709,-2.645 -7.966,0.37l-9.823,-1.386l-4.921,0.598c-4.586,2.95 -20.442,5.061 -20.339,9.589c-0.109,4.443 0.249,6.505 0.327,17.105c0.054,7.309 0.02,13.326 -0.007,16.36l2.599,0.502c1.416,-4.338 4.797,-14.815 4.544,-20.552c-0.134,-3.05 -0.593,-6.155 -1.002,-8.439c1.31,0.204 31.137,-0.01 31.137,-0.01c4.093,-1.227 7.382,-5.188 5.451,-14.137Z" style="fill:#3d3d5b;fill-rule:nonzero;"/><path d="M113.709,97.075l1.955,-4.361l-14.649,-5.173c-0.413,0.21 -0.862,0.418 -1.371,0.622l-0.001,0.001c0,0 4.441,7.257 14.066,8.911Z" style="fill:#323249;fill-rule:nonzero;"/><path d="M109.347,95.571c-5.113,3.409 -23.704,2.683 -23.704,2.683c3.208,13.235 -2.402,32.188 -2.402,32.188l1.141,0.221c1.416,-4.338 4.797,-14.815 4.544,-20.552c-0.134,-3.05 -0.593,-6.155 -1.002,-8.439c1.309,0.204 31.137,-0.01 31.137,-0.01c3.457,-1.037 6.303,-4.063 5.951,-10.361l-9.348,-3.55c0,0 -1.203,4.411 -6.317,7.82Z" style="fill:#323249;fill-rule:nonzero;"/><path d="M104.208,42.928c0,0 -0.046,1.498 -0.245,2.496c-0.198,0.998 -0.834,1.603 -0.834,1.603c0.289,0.875 1.5,1.012 1.5,1.012l-0.421,-5.111Z" style="fill:#d1652f;fill-rule:nonzero;"/><path d="M110.731,59.057c0.586,-2.46 0.466,-5.459 -0.066,-8.774l6.914,-1.481c0,0 0.121,6.412 1.274,10.223c0.017,0.904 -8.122,0.032 -8.122,0.032Z" style="fill:#d1652f;fill-rule:nonzero;"/><path d="M104.168,43.987c-0.301,0.225 -0.607,0.231 -0.914,0.155c0.233,0.416 0.532,0.652 0.923,0.643l-0.009,-0.798Z" style="fill:#3a1b0b;fill-rule:nonzero;"/><path d="M106.225,32.148c0,0 -2.513,-0.15 -2.873,5.057c0,0 0.18,3.289 0.544,5.665c0.281,1.831 -0.304,3.113 -0.049,4.626c0.228,1.356 1.625,2.865 3.331,6.378c0,0 0.999,0.318 5.166,-1.803l-6.119,-19.923Z" style="fill:#ffb476;fill-rule:nonzero;"/><path d="M107.178,53.874c0,0 2.505,-2.451 2.648,-3.35c0.143,-0.899 -0.59,-5.07 -0.59,-5.07l3.811,-0.093l2.367,6.626c0,0 -7.585,2.301 -8.236,1.887Z" style="fill:#d1652f;fill-rule:nonzero;"/><path d="M103.467,42.281c-0.208,-0.174 -0.256,-0.732 0.434,-0.578c0.275,0.062 0.521,0.26 0.648,0.534l0.001,0.031c-0.058,0.263 -0.99,0.091 -1.083,0.013Z" style="fill:#822d0f;fill-rule:nonzero;"/><path d="M122.239,35.92l-0.005,0.047c-0.41,-1.642 -1.131,-3.066 -2.179,-4.041c-4.836,-4.495 -13.428,-2.02 -15.894,-0.102c-1.197,0.751 -1.892,1.466 -2.245,2.133l0.001,-0.049c-2.033,3.552 3.603,4.329 4.429,7.896c0.228,0.986 0.29,2.914 0.672,2.895c0.363,-0.019 0.602,-0.53 0.831,-1.076l1.552,2.819c0.649,-1.513 1.34,0.155 2.808,1.822c1.07,1.216 2.552,2.431 4.733,2.415c2.779,-0.02 7.911,-6.543 5.297,-14.759Z" style="fill:#822d0f;fill-rule:nonzero;"/><path d="M116.93,50.679l0.02,0l-0.02,0Zm0.023,0c0.002,0 0.003,0 0.004,0c-0.001,0 -0.002,0 -0.004,0Zm0.008,0c0.002,0 0.003,0 0.004,0c-0.001,0 -0.003,0 -0.004,0Zm0.008,0c0.001,0 0.002,0 0.004,0c-0.001,0 -0.003,0 -0.004,0Zm0.008,0c0.001,0 0.002,0 0.003,0c-0.001,0 -0.002,0 -0.003,0Zm0.008,-0.001c0.001,0 0.002,0 0.003,0c-0.001,0 -0.002,0 -0.003,0Zm-0.202,0c-0.741,-0.015 -1.399,-0.173 -1.987,-0.422l-0.001,-0.002c0.588,0.251 1.247,0.409 1.988,0.424Zm0.21,0l0.001,0l-0.001,0Z" style="fill:#c75d2b;fill-rule:nonzero;"/><path d="M114.796,50.256c-1.074,-0.456 -1.912,-1.22 -2.586,-1.983c-1.063,-1.203 -1.718,-2.406 -2.245,-2.406c-0.101,0 -0.198,0.045 -0.292,0.143c-0.003,-0.003 -0.006,-0.007 -0.009,-0.011c0.096,-0.103 0.195,-0.15 0.299,-0.15c0.527,0 1.183,1.208 2.246,2.415c0.674,0.766 1.513,1.532 2.586,1.99l0.001,0.002Z" style="fill:#c75d2b;fill-rule:nonzero;"/><path d="M116.9,50.679c-0.039,0 -0.078,0 -0.117,-0.001c-0.741,-0.015 -1.4,-0.173 -1.988,-0.424c-1.073,-0.458 -1.912,-1.224 -2.586,-1.99c-1.063,-1.207 -1.719,-2.415 -2.246,-2.415c-0.104,0 -0.203,0.047 -0.299,0.15c-0.265,-0.338 -0.428,-0.545 -0.428,-0.545l1.312,-1.011c0,0 0.407,0.208 1.213,0.208c0.806,0 2.01,-0.208 3.602,-1.04c3.309,-1.73 2.85,-4.743 2.85,-4.743l0.884,-0.031l0.114,0.98c0.011,-0.001 0.022,-0.001 0.034,-0.001c1.017,0 1.018,4.074 1.315,8.301c-1.145,1.569 -2.489,2.502 -3.531,2.559c-0.012,0.001 -0.023,0.002 -0.035,0.002l-0.001,0l-0.008,0c-0.002,0 -0.003,0 -0.005,0.001l-0.08,0Z" style="fill:#7b290e;fill-rule:nonzero;"/><path d="M108.243,78.452c0.272,5.212 -5.012,7.694 -7.783,8.893c2.721,4.767 9.188,7.268 14.538,7.268c4.825,0 12.396,0.327 8.826,-9.428c-1.273,-3.478 -3.389,-6.218 -3.393,-7.616c-0.01,-3.447 1.375,-3.893 3.326,-9.502c1.959,-5.631 1.102,-9.388 1.102,-9.388c-8.503,-4.097 -17.513,-1.014 -18.942,0.207c-1.819,6.547 -4.157,9.016 -3.957,10.93c0.306,2.923 6.142,5.947 6.283,8.636Z" style="fill:#5c5c99;fill-rule:nonzero;"/><path d="M102.415,36.368c0,0 -0.762,0.509 -0.531,1.912c0.32,1.936 3.352,4.426 6.082,4.309c0,0 -4.076,-2.808 -5.551,-6.221Z" style="fill:#822d0f;fill-rule:nonzero;"/><path d="M109.79,57.327l0.631,-2.069c0,0 2.939,-2.282 8.569,-1.416l1.195,3.255c0,0 -2.537,-0.732 -10.395,0.23Z" style="fill:#f4e4ec;fill-rule:nonzero;"/><path d="M102.393,34.95c0.197,-2.304 5.113,-5.013 9.031,-5.121c6.002,-0.165 8.094,4.02 3.634,6.828c-6.762,4.258 -12.83,0.221 -12.665,-1.707Z" style="fill:#933914;fill-rule:nonzero;"/><path d="M110.805,45.029c-0.331,1.124 -1.307,1.825 -2.181,1.567c-0.874,-0.259 -1.314,-1.379 -0.983,-2.502c0.331,-1.124 1.308,-1.825 2.181,-1.566c0.874,0.258 1.314,1.378 0.983,2.501Z" style="fill:#ed9558;fill-rule:nonzero;"/><path d="M110.457,45.032c-0.331,1.123 -1.308,1.824 -2.182,1.566c-0.873,-0.258 -1.313,-1.378 -0.983,-2.502c0.331,-1.123 1.308,-1.824 2.182,-1.566c0.873,0.258 1.313,1.379 0.983,2.502Z" style="fill:#ffb476;fill-rule:nonzero;"/><path d="M109.231,43.353c-0.361,-0.107 -0.744,0.074 -1.015,0.411c0.183,-0.107 0.385,-0.156 0.58,-0.099c0.447,0.132 0.672,0.706 0.503,1.281c-0.131,0.445 -0.461,0.753 -0.811,0.811l0.03,0.018c0.52,0.154 1.101,-0.264 1.298,-0.932c0.197,-0.669 -0.065,-1.336 -0.585,-1.49Z" style="fill:#d1652f;fill-rule:nonzero;"/><path d="M100.46,87.345c2.872,0.506 9.188,-5.61 16.006,-5.71c2.917,-0.043 5.031,0.7 6.565,1.676c-1.205,-2.579 -2.597,-4.608 -2.6,-5.742c-0.01,-3.447 1.375,-3.893 3.326,-9.502c0,0 -1.777,5.045 -7.191,5.045c-5.414,0 -7.419,-4.411 -7.419,-4.411c0,0 1.997,-5.033 0.297,-8.281l-6.912,10.825c1.512,2.466 5.593,4.954 5.711,7.207c0.272,5.212 -5.012,7.694 -7.783,8.893Z" style="fill:#4d4d84;fill-rule:nonzero;"/><path d="M107.282,58.238c-2.082,-0.372 -3.584,4.997 -6.371,10.962c-2.838,6.072 -6.415,12.535 -3.744,13.863c5.957,2.963 18.524,-23.322 10.115,-24.825Z" style="fill:#f4e4ec;fill-rule:nonzero;"/><path d="M90.999,63.838c0,0 4.44,4.71 7.559,10.326c0,0 2.07,11.316 -1.391,8.899c-3.461,-2.416 -7.749,-16.566 -7.749,-16.566l1.581,-2.659Z" style="fill:#f4e4ec;fill-rule:nonzero;"/><path d="M85.911,62.714c0,0 0.459,-0.38 0.743,-0.425c0.284,-0.045 1.903,0.347 2.514,0.457c0.611,0.111 -3.373,0.691 -3.257,-0.032Z" style="fill:#ed9558;fill-rule:nonzero;"/><path d="M85.899,63.195c-1.413,-0.233 -3.169,-0.982 -2.998,-1.31c0.194,-0.374 2.077,0.681 3.461,0.724l-0.463,0.586Z" style="fill:#ed9558;fill-rule:nonzero;"/><path d="M86.598,62.839c-1.199,-0.32 -2.649,-1.112 -2.475,-1.381c0.199,-0.306 1.734,0.761 2.923,0.915l-0.448,0.466Z" style="fill:#ed9558;fill-rule:nonzero;"/><path d="M89.791,62.719c-0.382,-0.563 -1.334,-0.625 -2.264,-0.479c-0.499,0.373 -2.294,0.303 -2.234,0.931c0.015,0.36 2.631,0.345 3.603,0.801c0,0 1.383,-0.533 0.895,-1.253Z" style="fill:#ffb476;fill-rule:nonzero;"/><path d="M89.791,62.719c-0.58,-0.864 -1.716,-1.462 -1.985,-1.641c-0.27,-0.18 -1.047,-0.987 -1.316,-0.838c-0.27,0.15 0.092,0.596 0.448,0.987c0.598,0.658 0.748,1.585 0.748,1.585l2.105,-0.093Z" style="fill:#ffb476;fill-rule:nonzero;"/><path d="M85.587,63.354c-1.655,-0.407 -2.9,-0.118 -2.939,-0.485c-0.041,-0.382 2.556,-0.284 3.348,-0.14l-0.409,0.625Z" style="fill:#ffb476;fill-rule:nonzero;"/><path d="M118.91,37.217c0,0 2.43,-3.039 5.23,-1.737c5.929,2.759 -1.429,22.302 2.491,24.409c0,0 -3.404,-0.215 -5.053,-5.188c-1.648,-4.973 -0.73,-15.026 -2.367,-14.884l-0.301,-2.6Z" style="fill:#822d0f;fill-rule:nonzero;"/><path d="M126.631,59.889c0,0 -0.001,0 -0.001,-0.001c-0.102,-0.054 -0.196,-0.121 -0.283,-0.198c0.087,0.077 0.182,0.144 0.284,0.199Zm-0.286,-0.201c-0.001,-0.001 -0.003,-0.003 -0.004,-0.004c0.001,0.001 0.003,0.003 0.004,0.004Zm-0.01,-0.009c-0.001,-0.001 -0.002,-0.002 -0.003,-0.003c0.002,0.001 0.002,0.002 0.003,0.003Zm-0.01,-0.009c0,-0.001 -0.001,-0.001 -0.001,-0.002c0,0.001 0.001,0.001 0.001,0.002Z" style="fill:#1fa1a3;fill-rule:nonzero;"/><path d="M126.63,59.888c-0.077,-0.036 -3.244,-1.563 -3.045,-5.625c0.199,-4.097 3.308,-12.028 2.273,-16.82c2.339,5.573 -2.297,19.658 0.466,22.225c0,0.001 0.001,0.001 0.001,0.002c0.003,0.002 0.005,0.004 0.007,0.006c0.001,0.001 0.002,0.002 0.003,0.003c0.002,0.002 0.004,0.003 0.006,0.005l0.006,0.006c0.087,0.077 0.181,0.144 0.283,0.198Z" style="fill:#75260c;fill-rule:nonzero;"/><path d="M118.892,37.217c0,0 -0.679,1.651 0.724,2.858c0,0 -1.153,-0.053 -1.403,-1.207c-0.251,-1.155 0.679,-1.651 0.679,-1.651Z" style="fill:#f4e4ec;fill-rule:nonzero;"/><path d="M107.601,40.445c-0.124,-0.715 1.927,-0.809 4.115,-1.384c3.008,-0.789 4.278,-1.737 4.512,-1.504c0.232,0.233 -0.752,1.805 -3.61,2.933c-2.061,0.814 -4.812,1.128 -5.017,-0.045Z" style="fill:#933914;fill-rule:nonzero;"/><path d="M97.015,81.133c-2.624,-1.305 -6.557,-11.207 -7.597,-14.636c1.04,3.429 5.125,15.262 7.749,16.566c2.859,1.997 9.095,-5.834 11.825,-14.359c-2.919,7.049 -8.939,14.551 -11.977,12.429Z" style="fill:#dbb4d1;fill-rule:nonzero;"/><path d="M108.82,138.398l-0.024,-32.321l2.124,0l0.024,32.321l-2.124,0Z" style="fill:#a3bbe5;fill-rule:nonzero;"/><path d="M110.168,138.398l-0.024,-32.321l0.776,0l0.024,32.321l-0.776,0Z" style="fill:#7797c6;fill-rule:nonzero;"/><path d="M108.695,114.53l-1.689,-7.958l5.704,0l-1.689,7.958l-2.326,0Z" style="fill:#7797c6;fill-rule:nonzero;"/><path d="M121.824,140.272l-23.884,0l0,-0.655l9.594,-1.601l4.696,0l9.594,1.601l0,0.655Z" style="fill:#a3bbe5;fill-rule:nonzero;"/><path d="M112.789,138.198l-5.815,0l1.08,-6.786l3.655,0l1.08,6.786Z" style="fill:#a3bbe5;fill-rule:nonzero;"/><path d="M108.054,131.412l3.655,0l1.08,6.786l9.035,1.419l-15.923,0l2.818,-1.219l0.76,-6.385l-1.425,-0.601Z" style="fill:#7797c6;fill-rule:nonzero;"/><path d="M93.338,104.665l33.04,0c0,-1.658 -1.345,-3.003 -3.003,-3.003l-27.034,0c-1.658,0 -3.003,1.345 -3.003,3.003Z" style="fill:#285d87;fill-rule:nonzero;"/><path d="M96.569,101.662l13.895,0c-1.785,0 -3.232,1.345 -3.232,3.003l-13.894,0c0,-1.658 1.447,-3.003 3.231,-3.003Z" style="fill:#18496b;fill-rule:nonzero;"/><path d="M126.325,104.14c0.033,0.171 0.053,0.346 0.053,0.525l-33.04,0c0,-0.179 0.02,-0.354 0.053,-0.525l32.934,0Z" style="fill:#18496b;fill-rule:nonzero;"/><rect x="92.046" y="104.545" width="35.624" height="4.054" style="fill:#285d87;fill-rule:nonzero;"/><rect x="92.046" y="104.545" width="23.022" height="4.054" style="fill:#18496b;fill-rule:nonzero;"/><rect x="92.046" y="104.545" width="35.624" height="0.488" style="fill:#18496b;fill-rule:nonzero;"/><path d="M114.49,112.996c-0.227,0 -0.419,-0.023 -0.563,-0.076c-1.176,-0.428 -0.934,-4.091 -0.902,-4.507c0.007,-0.093 0.085,-0.164 0.176,-0.164l0.014,0.002c0.097,0.007 0.17,0.091 0.162,0.189c-0.11,1.469 -0.026,3.893 0.67,4.147c0.841,0.299 4.032,-0.678 5.192,-1.083c0.094,-0.031 0.194,0.019 0.227,0.109c0.031,0.093 -0.018,0.194 -0.11,0.227c-0.381,0.132 -3.363,1.156 -4.866,1.156Z" style="fill:#323749;fill-rule:nonzero;"/><path d="M120.245,110.285c-0.773,0.204 -1.918,1.028 -1.759,1.629c0.159,0.601 1.561,0.752 2.334,0.548c0.774,-0.205 1.272,-0.858 1.113,-1.459c-0.159,-0.601 -0.915,-0.923 -1.688,-0.718Z" style="fill:#323749;fill-rule:nonzero;"/><path d="M119.874,107.222c0,0 1.768,0 4.131,0c2.362,0 2.717,-2.19 2.717,-2.19l0,-9.292l-4.13,0l0,9.292l-2.718,0l0,2.19Z" style="fill:#a3bbe5;fill-rule:nonzero;"/><path d="M122.592,95.74l0,9.292l-2.718,0l0,2.19c0,0 1.768,0 4.131,0c0.368,0 0.673,-0.065 0.95,-0.155c-1.383,-0.533 -1.581,-1.886 -1.581,-1.886l0,-9.441l-0.782,0Z" style="fill:#7797c6;fill-rule:nonzero;"/><path d="M111.377,79.052c-0.702,13.079 4.987,18.24 12.347,18.24c7.359,0 13.602,-5.161 14.304,-18.24c0.702,-13.079 -4.403,-29.124 -11.763,-29.124c-7.359,0 -14.186,16.045 -14.888,29.124Z" style="fill:#18496b;fill-rule:nonzero;"/><path d="M112.749,79.239c-0.726,13.529 5.159,18.867 12.771,18.867c7.612,0 14.07,-5.338 14.796,-18.867c0.726,-13.529 -4.554,-30.126 -12.167,-30.126c-7.612,0 -14.674,16.597 -15.4,30.126Z" style="fill:#285d87;fill-rule:nonzero;"/><path d="M63.741,19.563l-3.136,0.856c-0.104,0.029 -0.207,-0.004 -0.278,-0.081c-0.069,-0.078 -0.089,-0.188 -0.05,-0.285l1.271,-3.213c-0.266,-0.576 -0.444,-1.164 -0.531,-1.747c-0.318,-2.17 0.478,-4.367 2.243,-6.185c1.747,-1.799 4.237,-3.014 7.013,-3.423c5.765,-0.85 10.976,2.086 11.631,6.536c0.653,4.452 -3.498,8.761 -9.256,9.608c-0.656,0.096 -1.313,0.144 -1.962,0.144c-2.629,0 -5.124,-0.78 -6.945,-2.21Z" style="fill:#fff;fill-rule:nonzero;"/><path d="M84.521,0.498c-5.026,0 -9.239,2.756 -9.821,6.711c-0.659,4.482 3.593,8.833 9.479,9.698c3.484,0.511 6.94,-0.311 9.262,-2.198l0.222,-0.047l3.031,0.828l-1.229,-3.104l0.007,-0.201c0.294,-0.608 0.487,-1.226 0.577,-1.837c0.318,-2.159 -0.485,-4.355 -2.26,-6.183c-1.792,-1.846 -4.356,-3.094 -7.218,-3.515c-0.694,-0.102 -1.38,-0.152 -2.05,-0.152Zm1.684,17.057c-0.693,0 -1.395,-0.05 -2.098,-0.153c-6.158,-0.906 -10.601,-5.511 -9.902,-10.266c0.7,-4.756 6.288,-7.884 12.438,-6.981c2.972,0.437 5.637,1.737 7.505,3.662c1.886,1.943 2.736,4.288 2.395,6.604c-0.091,0.627 -0.284,1.259 -0.573,1.882l1.373,3.468l-0.046,0.259c-0.063,0.07 -0.158,0.1 -0.252,0.074l-3.39,-0.926c-1.949,1.539 -4.626,2.377 -7.45,2.377Z" style="fill:#fff;fill-rule:nonzero;"/><path d="M89.254,4.283l-8.15,0c-0.138,0 -0.25,-0.111 -0.25,-0.25c0,-0.138 0.112,-0.25 0.25,-0.25l8.15,0c0.138,0 0.25,0.112 0.25,0.25c0,0.139 -0.112,0.25 -0.25,0.25Z" style="fill:#fff;fill-rule:nonzero;"/><path d="M92.228,6.547l-14.097,0c-0.137,0 -0.25,-0.112 -0.25,-0.25c0,-0.138 0.113,-0.25 0.25,-0.25l14.097,0c0.138,0 0.25,0.112 0.25,0.25c0,0.138 -0.112,0.25 -0.25,0.25Z" style="fill:#fff;fill-rule:nonzero;"/><path d="M92.228,8.811l-14.097,0c-0.137,0 -0.25,-0.111 -0.25,-0.25c0,-0.138 0.113,-0.25 0.25,-0.25l14.097,0c0.138,0 0.25,0.112 0.25,0.25c0,0.139 -0.112,0.25 -0.25,0.25Z" style="fill:#fff;fill-rule:nonzero;"/><path d="M92.228,11.075l-14.097,0c-0.137,0 -0.25,-0.112 -0.25,-0.25c0,-0.138 0.113,-0.25 0.25,-0.25l14.097,0c0.138,0 0.25,0.112 0.25,0.25c0,0.138 -0.112,0.25 -0.25,0.25Z" style="fill:#fff;fill-rule:nonzero;"/><path d="M92.228,13.339l-14.097,0c-0.137,0 -0.25,-0.112 -0.25,-0.25c0,-0.138 0.113,-0.25 0.25,-0.25l14.097,0c0.138,0 0.25,0.112 0.25,0.25c0,0.138 -0.112,0.25 -0.25,0.25Z" style="fill:#fff;fill-rule:nonzero;"/><path d="M136.919,43.631l14.305,0l0,-15.871l-3.005,0c-0.138,0 -0.25,-0.112 -0.25,-0.25l0,-2.791l-11.05,0l0,18.912Zm14.555,0.5l-14.805,0c-0.137,0 -0.25,-0.112 -0.25,-0.25l0,-19.412c0,-0.139 0.113,-0.25 0.25,-0.25l11.55,0c0.138,0 0.25,0.111 0.25,0.25l0,2.791l3.005,0c0.138,0 0.25,0.111 0.25,0.25l0,16.371c0,0.138 -0.112,0.25 -0.25,0.25Z" style="fill:#fff;fill-rule:nonzero;"/><path d="M151.474,27.759l-0.171,-0.067l-3.256,-3.041c-0.1,-0.094 -0.106,-0.252 -0.011,-0.353c0.093,-0.101 0.252,-0.105 0.353,-0.012l3.256,3.04c0.101,0.095 0.106,0.253 0.012,0.353l-0.183,0.08Z" style="fill:#fff;fill-rule:nonzero;"/><rect x="138.663" y="25.758" width="4.792" height="5.069" style="fill:#fff;fill-rule:nonzero;"/><path d="M149.481,33.38l-10.818,0c-0.138,0 -0.25,-0.112 -0.25,-0.25c0,-0.138 0.112,-0.25 0.25,-0.25l10.818,0c0.138,0 0.25,0.112 0.25,0.25c0,0.138 -0.112,0.25 -0.25,0.25Z" style="fill:#fff;fill-rule:nonzero;"/><path d="M149.481,35.002l-10.818,0c-0.138,0 -0.25,-0.112 -0.25,-0.25c0,-0.138 0.112,-0.25 0.25,-0.25l10.818,0c0.138,0 0.25,0.112 0.25,0.25c0,0.138 -0.112,0.25 -0.25,0.25Z" style="fill:#fff;fill-rule:nonzero;"/><path d="M149.481,36.624l-10.818,0c-0.138,0 -0.25,-0.112 -0.25,-0.25c0,-0.138 0.112,-0.25 0.25,-0.25l10.818,0c0.138,0 0.25,0.112 0.25,0.25c0,0.138 -0.112,0.25 -0.25,0.25Z" style="fill:#fff;fill-rule:nonzero;"/><path d="M149.481,38.246l-10.818,0c-0.138,0 -0.25,-0.111 -0.25,-0.25c0,-0.138 0.112,-0.25 0.25,-0.25l10.818,0c0.138,0 0.25,0.112 0.25,0.25c0,0.139 -0.112,0.25 -0.25,0.25Z" style="fill:#fff;fill-rule:nonzero;"/><path d="M149.481,39.843l-10.818,0c-0.138,0 -0.25,-0.112 -0.25,-0.25c0,-0.139 0.112,-0.25 0.25,-0.25l10.818,0c0.138,0 0.25,0.111 0.25,0.25c0,0.138 -0.112,0.25 -0.25,0.25Z" style="fill:#fff;fill-rule:nonzero;"/><path d="M149.481,41.443l-10.818,0c-0.138,0 -0.25,-0.112 -0.25,-0.25c0,-0.138 0.112,-0.25 0.25,-0.25l10.818,0c0.138,0 0.25,0.112 0.25,0.25c0,0.138 -0.112,0.25 -0.25,0.25Z" style="fill:#fff;fill-rule:nonzero;"/><path d="M152.396,28.662l-0.921,-0.86l0,16.079l-13.638,0l0,0.86l14.559,0l0,-16.079Z" style="fill:#fff;fill-rule:nonzero;"/><path d="M12.573,28.652c-1.462,0 -2.652,-1.19 -2.652,-2.652c0,-1.463 1.19,-2.652 2.652,-2.652c1.463,0 2.652,1.189 2.652,2.652c0,1.462 -1.189,2.652 -2.652,2.652Z" style="fill:#fff;fill-rule:nonzero;"/><path d="M15.684,29.481l-6.222,0c-0.237,0 -0.43,0.193 -0.43,0.43l0,6.667c0,0.237 0.193,0.429 0.43,0.429l0.993,0l0,7.304c0,0.237 0.192,0.43 0.429,0.43l3.467,0c0.237,0 0.43,-0.193 0.43,-0.43l0,-7.304l0.903,0c0.238,0 0.43,-0.192 0.43,-0.429l0,-6.667c0,-0.237 -0.192,-0.43 -0.43,-0.43Z" style="fill:#fff;fill-rule:nonzero;"/><path d="M7.783,27.346c-1.023,0 -1.855,0.832 -1.855,1.855c0,1.023 0.832,1.855 1.855,1.855c1.023,0 1.855,-0.832 1.855,-1.855c0,-1.023 -0.832,-1.855 -1.855,-1.855Zm0,4.21c-1.298,0 -2.355,-1.056 -2.355,-2.355c0,-1.298 1.057,-2.355 2.355,-2.355c1.298,0 2.355,1.057 2.355,2.355c0,1.299 -1.057,2.355 -2.355,2.355Z" style="fill:#fff;fill-rule:nonzero;"/><path d="M5.313,32.214l-0.091,0.092l0,5.291l0.091,0.092l0.788,0c0.138,0 0.25,0.112 0.25,0.25l0,5.797l0.091,0.091l2.752,0l0.092,-0.091l0,-5.797c0,-0.138 0.112,-0.25 0.25,-0.25l0.716,0l0.092,-0.092l0,-5.291l-0.092,-0.092l-4.939,0Zm3.881,12.113l-2.752,0c-0.326,0 -0.591,-0.265 -0.591,-0.591l0,-5.547l-0.538,0c-0.326,0 -0.591,-0.265 -0.591,-0.592l0,-5.291c0,-0.326 0.265,-0.592 0.591,-0.592l4.939,0c0.327,0 0.592,0.266 0.592,0.592l0,5.291c0,0.327 -0.265,0.592 -0.592,0.592l-0.466,0l0,5.547c0,0.326 -0.266,0.591 -0.592,0.591Z" style="fill:#fff;fill-rule:nonzero;"/><path d="M17.364,27.346c-1.024,0 -1.856,0.832 -1.856,1.855c0,1.023 0.832,1.855 1.856,1.855c1.022,0 1.854,-0.832 1.854,-1.855c0,-1.023 -0.832,-1.855 -1.854,-1.855Zm0,4.21c-1.299,0 -2.356,-1.056 -2.356,-2.355c0,-1.298 1.057,-2.355 2.356,-2.355c1.298,0 2.354,1.057 2.354,2.355c0,1.299 -1.056,2.355 -2.354,2.355Z" style="fill:#fff;fill-rule:nonzero;"/><path d="M14.894,32.214l-0.092,0.092l0,5.291l0.092,0.092l0.788,0c0.138,0 0.25,0.112 0.25,0.25l0,5.797l0.091,0.091l2.752,0l0.091,-0.091l0,-5.797c0,-0.138 0.112,-0.25 0.25,-0.25l0.717,0l0.091,-0.092l0,-5.291l-0.091,-0.092l-4.939,0Zm3.881,12.113l-2.752,0c-0.326,0 -0.591,-0.265 -0.591,-0.591l0,-5.547l-0.538,0c-0.326,0 -0.592,-0.265 -0.592,-0.592l0,-5.291c0,-0.326 0.266,-0.592 0.592,-0.592l4.939,0c0.327,0 0.591,0.266 0.591,0.592l0,5.291c0,0.327 -0.264,0.592 -0.591,0.592l-0.467,0l0,5.547c0,0.326 -0.265,0.591 -0.591,0.591Z" style="fill:#fff;fill-rule:nonzero;"/><path d="M11.951,22.333l-0.163,-0.06l-2.116,-1.805c-0.105,-0.09 -0.118,-0.247 -0.028,-0.352c0.091,-0.105 0.249,-0.117 0.353,-0.029l1.929,1.646l3.198,-3.613c0.093,-0.104 0.249,-0.114 0.354,-0.022c0.103,0.092 0.112,0.25 0.021,0.353l-3.361,3.797l-0.187,0.085Z" style="fill:#fff;fill-rule:nonzero;"/><path d="M100.988,9.491c-0.493,-0.143 -0.991,-0.279 -1.492,-0.407l0.148,-0.581c0.507,0.129 1.011,0.267 1.511,0.412l-0.167,0.576Zm5.617,1.996c-0.924,-0.39 -1.859,-0.753 -2.78,-1.08l0.201,-0.565c0.931,0.331 1.878,0.698 2.811,1.092l-0.232,0.553Zm5.361,2.613c-0.872,-0.484 -1.762,-0.948 -2.645,-1.379l0.263,-0.539c0.893,0.435 1.792,0.904 2.673,1.393l-0.291,0.525Zm5.066,3.154c-0.817,-0.566 -1.656,-1.118 -2.494,-1.64l0.317,-0.509c0.847,0.527 1.694,1.085 2.518,1.656l-0.341,0.493Zm4.738,3.628c-0.764,-0.642 -1.546,-1.272 -2.327,-1.87l0.365,-0.476c0.788,0.603 1.578,1.239 2.349,1.887l-0.387,0.459Zm4.389,4.051c-0.697,-0.704 -1.419,-1.402 -2.149,-2.076l0.406,-0.44c0.738,0.679 1.467,1.384 2.168,2.094l-0.425,0.422Zm4,4.434c-0.621,-0.756 -1.278,-1.518 -1.95,-2.264l0.446,-0.401c0.678,0.752 1.341,1.521 1.967,2.284l-0.463,0.381Zm3.554,4.794c-0.546,-0.822 -1.124,-1.644 -1.717,-2.441l0.481,-0.359c0.6,0.806 1.184,1.637 1.736,2.468l-0.5,0.332Z" style="fill:#0f869b;fill-rule:nonzero;"/><path d="M54.253,10.767l-0.193,-0.568c0.952,-0.324 1.922,-0.623 2.883,-0.888l0.16,0.578c-0.95,0.263 -1.909,0.558 -2.85,0.878Zm-5.532,2.232l-0.254,-0.543c0.914,-0.428 1.845,-0.834 2.765,-1.206l0.224,0.557c-0.91,0.368 -1.83,0.768 -2.735,1.192Zm-5.268,2.805l-0.309,-0.515c0.866,-0.518 1.749,-1.017 2.625,-1.485l0.283,0.53c-0.868,0.463 -1.743,0.957 -2.599,1.47Zm-4.972,3.306l-0.356,-0.484c0.815,-0.599 1.647,-1.18 2.47,-1.728l0.332,0.5c-0.815,0.542 -1.638,1.118 -2.446,1.712Zm-4.648,3.749l-0.398,-0.449c0.747,-0.661 1.521,-1.315 2.302,-1.944l0.378,0.466c-0.775,0.624 -1.542,1.273 -2.282,1.927Zm-4.298,4.148l-0.436,-0.413c0.689,-0.727 1.403,-1.447 2.122,-2.14l0.416,0.432c-0.712,0.687 -1.419,1.4 -2.102,2.121Zm-3.912,4.513l-0.47,-0.371c0.611,-0.776 1.258,-1.558 1.921,-2.323l0.453,0.393c-0.656,0.758 -1.297,1.532 -1.904,2.301Zm-1.972,2.647l-0.492,-0.344l0.184,-0.262l0.49,0.347l-0.182,0.259Z" style="fill:#0f869b;fill-rule:nonzero;"/></svg>